<svg width="604" height="626" viewBox="0 0 604 626" fill="none" xmlns="http://www.w3.org/2000/svg">
<rect width="604" height="626" fill="#0D9BFF"/>
<path d="M126 144.186L222.5 101L395.5 156.186V221.5L474.5 245V317L399.5 350.634L479 376V450.5L382.5 494L369 489L299 525.5L126 469.686V144.186Z" fill="white"/>
<path d="M126 144.186L222.5 101L395.5 156.186M126 144.186L299 199.686M126 144.186V469.686L299 525.5M395.5 156.186V221.5M395.5 156.186L347.25 177.936L299 199.686M299 199.686V264.686M299 525.5V469.686L369 489M299 525.5L369 489M299 264.686L395.5 221.5M299 264.686L377.5 287.5M299 393.186V340.5L377.5 360.5M299 393.186L377.5 360.5M299 393.186L382.5 419.186M395.5 221.5L474.5 245M474.5 245L377.5 287.5M474.5 245V317L377.5 360.5M377.5 287.5V360.5M377.5 360.5L399.5 350.634L479 376M382.5 419.186L479 376M382.5 419.186V494M479 376V450.5L382.5 494M382.5 494L369 489M180 236.686V301.5L211 310L242 319.686V255L180 236.686ZM180 364.186V428L242 447V382.686L180 364.186Z" stroke="#0D9BFF" stroke-width="6"/>
<ellipse cx="423.251" cy="366.989" rx="20.25" ry="12.25" transform="rotate(5.0613 423.251 366.989)" fill="#0D9BFF" stroke="white" stroke-width="4"/>
<ellipse cx="423.251" cy="234.989" rx="20.25" ry="12.25" transform="rotate(5.0613 423.251 234.989)" fill="#0D9BFF" stroke="white" stroke-width="4"/>
<ellipse cx="330.251" cy="142.989" rx="20.25" ry="12.25" transform="rotate(5.0613 330.251 142.989)" fill="#0D9BFF" stroke="white" stroke-width="4"/>
<ellipse cx="253.251" cy="116.989" rx="20.25" ry="12.25" transform="rotate(5.0613 253.251 116.989)" fill="#0D9BFF" stroke="white" stroke-width="4"/>
<ellipse cx="374.143" cy="389.839" rx="21.2728" ry="13.4108" transform="rotate(3.93514 374.143 389.839)" fill="#0D9BFF" stroke="white" stroke-width="4"/>
<ellipse cx="374.143" cy="257.839" rx="21.2728" ry="13.4108" transform="rotate(3.93514 374.143 257.839)" fill="#0D9BFF" stroke="white" stroke-width="4"/>
<ellipse cx="281.143" cy="165.839" rx="21.2728" ry="13.4108" transform="rotate(3.93514 281.143 165.839)" fill="#0D9BFF" stroke="white" stroke-width="4"/>
<ellipse cx="204.143" cy="139.839" rx="21.2728" ry="13.4108" transform="rotate(3.93514 204.143 139.839)" fill="#0D9BFF" stroke="white" stroke-width="4"/>
<path d="M182 300V239L240 256V318L182 300Z" fill="#0D9BFF"/>
<path d="M182 426V366.5L240 383.5V444L182 426Z" fill="#0D9BFF" stroke="#0D9BFF"/>
</svg>
